<svg width="400" height="160" viewBox="0 0 400 160" fill="none" xmlns="http://www.w3.org/2000/svg">
<path d="M78.44 50.9C82.48 50.9 85.68 52.08 88.04 54.44C90.44 56.76 91.64 60.18 91.64 64.7V83H85.88V65.36C85.88 62.28 85.14 59.96 83.66 58.4C82.18 56.84 80.06 56.06 77.3 56.06C74.18 56.06 71.72 56.98 69.92 58.82C68.12 60.62 67.22 63.22 67.22 66.62V83H61.46V38.48H67.22V55.7C68.42 54.18 69.98 53 71.9 52.16C73.86 51.32 76.04 50.9 78.44 50.9ZM116.88 50.9C121.28 50.9 124.64 51.98 126.96 54.14C129.32 56.3 130.5 59.52 130.5 63.8V83H125.04V78.8C124.08 80.28 122.7 81.42 120.9 82.22C119.14 82.98 117.04 83.36 114.6 83.36C111.04 83.36 108.18 82.5 106.02 80.78C103.9 79.06 102.84 76.8 102.84 74C102.84 71.2 103.86 68.96 105.9 67.28C107.94 65.56 111.18 64.7 115.62 64.7H124.74V63.56C124.74 61.08 124.02 59.18 122.58 57.86C121.14 56.54 119.02 55.88 116.22 55.88C114.34 55.88 112.5 56.2 110.7 56.84C108.9 57.44 107.38 58.26 106.14 59.3L103.74 54.98C105.38 53.66 107.34 52.66 109.62 51.98C111.9 51.26 114.32 50.9 116.88 50.9ZM115.56 78.92C117.76 78.92 119.66 78.44 121.26 77.48C122.86 76.48 124.02 75.08 124.74 73.28V68.84H115.86C110.98 68.84 108.54 70.48 108.54 73.76C108.54 75.36 109.16 76.62 110.4 77.54C111.64 78.46 113.36 78.92 115.56 78.92ZM144.159 38.48H149.919V83H144.159V38.48ZM175.557 42.86C172.117 42.86 170.397 44.72 170.397 48.44V51.2H179.637V55.94H170.517V83H164.757V55.94H159.357V51.2H164.757V48.38C164.757 45.22 165.677 42.72 167.517 40.88C169.357 39.04 171.937 38.12 175.257 38.12C176.537 38.12 177.737 38.28 178.857 38.6C179.977 38.92 180.937 39.38 181.737 39.98L179.997 44.36C178.677 43.36 177.197 42.86 175.557 42.86Z" fill="white"/>
<path d="M275.58 98.2L263.7 130H258.18L249 105.88L239.7 130H234.18L222.36 98.2H227.82L237.06 123.52L246.66 98.2H251.52L260.94 123.64L270.42 98.2H275.58ZM295.009 97.9C299.409 97.9 302.769 98.98 305.089 101.14C307.449 103.3 308.629 106.52 308.629 110.8V130H303.169V125.8C302.209 127.28 300.829 128.42 299.029 129.22C297.269 129.98 295.169 130.36 292.729 130.36C289.169 130.36 286.309 129.5 284.149 127.78C282.029 126.06 280.969 123.8 280.969 121C280.969 118.2 281.989 115.96 284.029 114.28C286.069 112.56 289.309 111.7 293.749 111.7H302.869V110.56C302.869 108.08 302.149 106.18 300.709 104.86C299.269 103.54 297.149 102.88 294.349 102.88C292.469 102.88 290.629 103.2 288.829 103.84C287.029 104.44 285.509 105.26 284.269 106.3L281.869 101.98C283.509 100.66 285.469 99.66 287.749 98.98C290.029 98.26 292.449 97.9 295.009 97.9ZM293.689 125.92C295.889 125.92 297.789 125.44 299.389 124.48C300.989 123.48 302.149 122.08 302.869 120.28V115.84H293.989C289.109 115.84 286.669 117.48 286.669 120.76C286.669 122.36 287.289 123.62 288.529 124.54C289.769 125.46 291.489 125.92 293.689 125.92ZM349.842 98.2L334.422 133.18C333.062 136.42 331.462 138.7 329.622 140.02C327.822 141.34 325.642 142 323.082 142C321.522 142 320.002 141.74 318.522 141.22C317.082 140.74 315.882 140.02 314.922 139.06L317.382 134.74C319.022 136.3 320.922 137.08 323.082 137.08C324.482 137.08 325.642 136.7 326.562 135.94C327.522 135.22 328.382 133.96 329.142 132.16L330.162 129.94L316.122 98.2H322.122L333.222 123.64L344.202 98.2H349.842Z" fill="white"/>
<path d="M164 131.036L241 47" stroke="white" stroke-width="2"/>
</svg>
