<svg width="900" height="450" viewBox="0 0 900 450" fill="none" xmlns="http://www.w3.org/2000/svg">
<path d="M74.8 129C88.2667 129 98.9333 132.933 106.8 140.8C114.8 148.533 118.8 159.933 118.8 175V236H99.6V177.2C99.6 166.933 97.1333 159.2 92.2 154C87.2667 148.8 80.2 146.2 71 146.2C60.6 146.2 52.4 149.267 46.4 155.4C40.4 161.4 37.4 170.067 37.4 181.4L37.4 236H18.2L18.2 87.6H37.4L37.4 145C41.4 139.933 46.6 136 53 133.2C59.5333 130.4 66.8 129 74.8 129ZM202.933 129C217.599 129 228.799 132.6 236.533 139.8C244.399 147 248.333 157.733 248.333 172V236L230.133 236V222C226.933 226.933 222.333 230.733 216.333 233.4C210.466 235.933 203.466 237.2 195.333 237.2C183.466 237.2 173.933 234.333 166.733 228.6C159.666 222.867 156.133 215.333 156.133 206C156.133 196.667 159.533 189.2 166.333 183.6C173.133 177.867 183.933 175 198.733 175H229.133V171.2C229.133 162.933 226.733 156.6 221.933 152.2C217.133 147.8 210.066 145.6 200.733 145.6C194.466 145.6 188.333 146.667 182.333 148.8C176.333 150.8 171.266 153.533 167.133 157L159.133 142.6C164.599 138.2 171.133 134.867 178.733 132.6C186.333 130.2 194.399 129 202.933 129ZM198.533 222.4C205.866 222.4 212.199 220.8 217.533 217.6C222.866 214.267 226.733 209.6 229.133 203.6V188.8H199.533C183.266 188.8 175.133 194.267 175.133 205.2C175.133 210.533 177.199 214.733 181.333 217.8C185.466 220.867 191.199 222.4 198.533 222.4ZM293.864 87.6H313.064V236H293.864V87.6ZM398.523 102.2C387.057 102.2 381.323 108.4 381.323 120.8V130H412.123V145.8H381.723V236H362.523V145.8L344.523 145.8V130L362.523 130V120.6C362.523 110.067 365.59 101.733 371.723 95.6C377.857 89.4667 386.457 86.4 397.523 86.4C401.79 86.4 405.79 86.9333 409.523 88C413.257 89.0667 416.457 90.6 419.123 92.6L413.323 107.2C408.923 103.867 403.99 102.2 398.523 102.2Z" fill="white"/>
<path d="M641.835 281.966L602.235 387.966H583.835L553.235 307.566L522.235 387.966H503.835L464.435 281.966H482.635L513.435 366.366L545.435 281.966H561.635L593.035 366.766L624.635 281.966H641.835ZM706.598 280.966C721.265 280.966 732.465 284.566 740.198 291.766C748.065 298.966 751.998 309.699 751.998 323.966V387.966H733.798V373.966C730.598 378.899 725.998 382.699 719.998 385.366C714.131 387.899 707.131 389.166 698.998 389.166C687.131 389.166 677.598 386.299 670.398 380.566C663.331 374.832 659.798 367.299 659.798 357.966C659.798 348.632 663.198 341.166 669.998 335.566C676.798 329.832 687.598 326.966 702.398 326.966H732.798V323.166C732.798 314.899 730.398 308.566 725.598 304.166C720.798 299.766 713.731 297.566 704.398 297.566C698.131 297.566 691.998 298.632 685.998 300.766C679.998 302.766 674.931 305.499 670.798 308.966L662.798 294.566C668.265 290.166 674.798 286.832 682.398 284.566C689.998 282.166 698.065 280.966 706.598 280.966ZM702.198 374.366C709.531 374.366 715.865 372.766 721.198 369.566C726.531 366.232 730.398 361.566 732.798 355.566V340.766H703.198C686.931 340.766 678.798 346.232 678.798 357.166C678.798 362.499 680.865 366.699 684.998 369.766C689.131 372.832 694.865 374.366 702.198 374.366ZM889.376 281.966L837.976 398.566C833.443 409.366 828.109 416.966 821.976 421.366C815.976 425.766 808.709 427.966 800.176 427.966C794.976 427.966 789.909 427.099 784.976 425.366C780.176 423.766 776.176 421.366 772.976 418.166L781.176 403.766C786.643 408.966 792.976 411.566 800.176 411.566C804.843 411.566 808.709 410.299 811.776 407.766C814.976 405.366 817.843 401.166 820.376 395.166L823.776 387.766L776.976 281.966H796.976L833.976 366.766L870.576 281.966H889.376Z" fill="white"/>
<path d="M315.157 422.845L546.775 112.5" stroke="white" stroke-width="2.5"/>
<path d="M315.157 422.845L546.775 112.5" stroke="white" stroke-width="8"/>
</svg>
