<svg width="584" height="233" viewBox="0 0 584 233" fill="none" xmlns="http://www.w3.org/2000/svg">
<path d="M44.88 51.8C52.96 51.8 59.36 54.16 64.08 58.88C68.88 63.52 71.28 70.36 71.28 79.4V116H59.76V80.72C59.76 74.56 58.28 69.92 55.32 66.8C52.36 63.68 48.12 62.12 42.6 62.12C36.36 62.12 31.44 63.96 27.84 67.64C24.24 71.24 22.44 76.44 22.44 83.24L22.44 116H10.92L10.92 26.96H22.44L22.44 61.4C24.84 58.36 27.96 56 31.8 54.32C35.72 52.64 40.08 51.8 44.88 51.8ZM121.76 51.8C130.56 51.8 137.28 53.96 141.92 58.28C146.64 62.6 149 69.04 149 77.6V116H138.08V107.6C136.16 110.56 133.4 112.84 129.8 114.44C126.28 115.96 122.08 116.72 117.2 116.72C110.08 116.72 104.36 115 100.04 111.56C95.7997 108.12 93.6797 103.6 93.6797 98C93.6797 92.4 95.7197 87.92 99.7997 84.56C103.88 81.12 110.36 79.4 119.24 79.4H137.48V77.12C137.48 72.16 136.04 68.36 133.16 65.72C130.28 63.08 126.04 61.76 120.44 61.76C116.68 61.76 113 62.4 109.4 63.68C105.8 64.88 102.76 66.52 100.28 68.6L95.4797 59.96C98.7597 57.32 102.68 55.32 107.24 53.96C111.8 52.52 116.64 51.8 121.76 51.8ZM119.12 107.84C123.52 107.84 127.32 106.88 130.52 104.96C133.72 102.96 136.04 100.16 137.48 96.56V87.68H119.72C109.96 87.68 105.08 90.96 105.08 97.52C105.08 100.72 106.32 103.24 108.8 105.08C111.28 106.92 114.72 107.84 119.12 107.84ZM176.318 26.96H187.838V116H176.318V26.96ZM239.114 35.72C232.234 35.72 228.794 39.44 228.794 46.88V52.4H247.274V61.88H229.034V116H217.514V61.88H206.714V52.4H217.514V46.76C217.514 40.44 219.354 35.44 223.034 31.76C226.714 28.08 231.874 26.24 238.514 26.24C241.074 26.24 243.474 26.56 245.714 27.2C247.954 27.84 249.874 28.76 251.474 29.96L247.994 38.72C245.354 36.72 242.394 35.72 239.114 35.72Z" fill="white"/>
<path d="M407.748 144.641L383.988 208.241H372.948L354.588 160.001L335.988 208.241H324.948L301.308 144.641H312.228L330.708 195.281L349.908 144.641H359.628L378.468 195.521L397.428 144.641H407.748ZM446.606 144.041C455.406 144.041 462.126 146.201 466.766 150.521C471.486 154.841 473.846 161.281 473.846 169.841V208.241H462.926V199.841C461.006 202.801 458.246 205.081 454.646 206.681C451.126 208.201 446.926 208.961 442.046 208.961C434.926 208.961 429.206 207.241 424.886 203.801C420.646 200.361 418.526 195.841 418.526 190.241C418.526 184.641 420.566 180.161 424.646 176.801C428.726 173.361 435.206 171.641 444.086 171.641H462.326V169.361C462.326 164.401 460.886 160.601 458.006 157.961C455.126 155.321 450.886 154.001 445.286 154.001C441.526 154.001 437.846 154.641 434.246 155.921C430.646 157.121 427.606 158.761 425.126 160.841L420.326 152.201C423.606 149.561 427.526 147.561 432.086 146.201C436.646 144.761 441.486 144.041 446.606 144.041ZM443.966 200.081C448.366 200.081 452.166 199.121 455.366 197.201C458.566 195.201 460.886 192.401 462.326 188.801V179.921H444.566C434.806 179.921 429.926 183.201 429.926 189.761C429.926 192.961 431.166 195.481 433.646 197.321C436.126 199.161 439.566 200.081 443.966 200.081ZM556.273 144.641L525.433 214.601C522.713 221.081 519.513 225.641 515.833 228.281C512.233 230.921 507.873 232.241 502.753 232.241C499.633 232.241 496.593 231.721 493.633 230.681C490.753 229.721 488.353 228.281 486.433 226.361L491.353 217.721C494.633 220.841 498.433 222.401 502.753 222.401C505.553 222.401 507.873 221.641 509.713 220.121C511.633 218.681 513.353 216.161 514.873 212.561L516.913 208.121L488.833 144.641H500.833L523.033 195.521L544.993 144.641H556.273Z" fill="white"/>
<path d="M204.502 201.086L354.796 53.5" stroke="white" stroke-width="2.5"/>
<path d="M204.502 201.086L354.796 53.5" stroke="white" stroke-width="2.5"/>
</svg>
